<svg xmlns="http://www.w3.org/2000/svg" viewBox="0 0 24 24" fill="currentColor"><path d="M12 2C6.48 2 2 6.48 2 12c0 4.84 3.66 8.84 8.34 9.74.61.11.83-.26.83-.58v-2.02c-3.39.74-4.1-1.41-4.1-1.41-.55-1.39-1.34-1.76-1.34-1.76-1.09-.75.08-.74.08-.74 1.2.08 1.83 1.23 1.83 1.23 1.07 1.83 2.8 1.3 3.49.99.11-.78.42-1.3.76-1.6-2.71-.31-5.56-1.36-5.56-6.06 0-1.34.47-2.44 1.23-3.3-.12-.31-.53-1.56.12-3.25 0 0 1.01-.32 3.3 1.23a11.5 11.5 0 0 1 3-.4c1.02.01 2.05.14 3 .4 2.29-1.55 3.3-1.23 3.3-1.23.65 1.69.24 2.94.12 3.25.77.86 1.23 1.96 1.23 3.3 0 4.71-2.86 5.75-5.58 6.06.43.37.81 1.1.81 2.22v3.29c0 .32.22.7.83.58C18.34 20.84 22 16.84 22 12c0-5.52-4.48-10-10-10z"/></svg>